<svg  viewBox="0 0 15 17" fill="none" xmlns="http://www.w3.org/2000/svg">
  <path d="M4.50305 10.7109H12.7681C13.7052 10.7109 14.4698 9.9023 14.4698 8.91114V5.23343C14.4698 5.23017 14.4698 5.22365 14.4698 5.22039C14.4698 5.21061 14.4698 5.20409 14.4698 5.1943C14.4698 5.18778 14.4698 5.18126 14.4667 5.17474C14.4667 5.16822 14.4636 5.15844 14.4636 5.15192C14.4636 5.1454 14.4605 5.13888 14.4605 5.13236C14.4574 5.12584 14.4574 5.11932 14.4544 5.10953C14.4513 5.10301 14.4513 5.09649 14.4482 5.08997C14.4451 5.08345 14.4451 5.07693 14.442 5.07041C14.4389 5.06389 14.4359 5.05737 14.4328 5.04759C14.4297 5.04107 14.4266 5.03455 14.4235 5.03129C14.4205 5.02477 14.4174 5.01824 14.4143 5.01172C14.4112 5.0052 14.4081 5.00194 14.405 4.99542C14.402 4.9889 14.3958 4.98238 14.3927 4.97586C14.3896 4.96934 14.3865 4.96608 14.3804 4.95956C14.3773 4.95304 14.3711 4.94978 14.368 4.94326C14.365 4.93673 14.3588 4.93347 14.3557 4.92695C14.3526 4.92043 14.3465 4.91717 14.3434 4.91391C14.3372 4.90739 14.3341 4.90413 14.328 4.89761C14.3218 4.89435 14.3187 4.88783 14.3126 4.88457C14.3064 4.88131 14.3002 4.87479 14.2941 4.87153C14.2879 4.86827 14.2848 4.86501 14.2786 4.86175C14.2725 4.85849 14.2663 4.85523 14.2601 4.8487C14.254 4.84544 14.2478 4.84218 14.2416 4.83892C14.2355 4.83566 14.2293 4.8324 14.2232 4.82914C14.217 4.82588 14.2108 4.82262 14.2047 4.81936C14.1985 4.8161 14.1923 4.8161 14.1862 4.81284C14.18 4.80958 14.1707 4.80632 14.1646 4.80632C14.1584 4.80632 14.1522 4.80306 14.1492 4.80306C14.1399 4.7998 14.1338 4.7998 14.1245 4.7998C14.1214 4.7998 14.1183 4.79654 14.1122 4.79654L3.63678 3.26742V1.722C3.63678 1.7057 3.63678 1.68939 3.6337 1.67635C3.6337 1.67309 3.6337 1.66983 3.63062 1.66331C3.63062 1.65353 3.62753 1.64375 3.62753 1.63397C3.62445 1.62419 3.62445 1.61766 3.62137 1.60788C3.62137 1.60136 3.61829 1.5981 3.61829 1.59158C3.6152 1.5818 3.61212 1.57202 3.60904 1.56224C3.60904 1.55898 3.60595 1.55246 3.60595 1.5492C3.60287 1.53942 3.59979 1.53289 3.59362 1.52311C3.59054 1.51985 3.59054 1.51333 3.58746 1.51007C3.58438 1.50355 3.58129 1.49703 3.57513 1.49051C3.57204 1.48399 3.56896 1.48073 3.56588 1.47421C3.5628 1.46769 3.55971 1.46443 3.55663 1.45791C3.55355 1.45139 3.54738 1.44486 3.5443 1.43834C3.54122 1.43508 3.53813 1.43182 3.53505 1.42856C3.52888 1.42204 3.52272 1.41552 3.51655 1.409C3.51347 1.40574 3.51039 1.40248 3.5073 1.39922C3.50114 1.3927 3.49497 1.38618 3.48573 1.37966C3.48264 1.3764 3.47648 1.37314 3.47339 1.36988C3.46723 1.36336 3.46106 1.36009 3.4549 1.35357C3.44565 1.34705 3.4364 1.34053 3.43023 1.33727C3.42715 1.33401 3.42407 1.33401 3.42099 1.33075C3.40865 1.32423 3.39324 1.31771 3.38091 1.31119L1.10888 0.30047C0.896165 0.205919 0.652622 0.310251 0.563221 0.535218C0.473819 0.760184 0.572469 1.01775 0.785183 1.11231L2.80134 2.01217V4.00753V4.32378V6.74951V8.91766V11.6564C2.80134 12.5693 3.44873 13.3257 4.28417 13.4398C4.13312 13.7072 4.04371 14.0202 4.04371 14.3527C4.04371 15.3341 4.799 16.1296 5.72385 16.1296C6.64869 16.1296 7.40398 15.3308 7.40398 14.3527C7.40398 14.0267 7.32074 13.7169 7.17277 13.4561H10.9153C10.7673 13.7202 10.6841 14.0267 10.6841 14.3527C10.6841 15.3341 11.4394 16.1296 12.3642 16.1296C13.2891 16.1296 14.0444 15.3308 14.0444 14.3527C14.0444 13.3746 13.2891 12.5758 12.3642 12.5758H4.50305C4.02213 12.5758 3.6337 12.1617 3.6337 11.6564V10.4631C3.88649 10.6196 4.18552 10.7109 4.50305 10.7109ZM6.5747 14.3495C6.5747 14.845 6.19243 15.2461 5.72693 15.2461C5.26142 15.2461 4.87916 14.8418 4.87916 14.3495C4.87916 13.8571 5.26142 13.4529 5.72693 13.4529C6.19243 13.4529 6.5747 13.8539 6.5747 14.3495ZM13.2151 14.3495C13.2151 14.845 12.8328 15.2461 12.3673 15.2461C11.9018 15.2461 11.5195 14.8418 11.5195 14.3495C11.5195 13.8571 11.9018 13.4529 12.3673 13.4529C12.8328 13.4529 13.2151 13.8539 13.2151 14.3495ZM12.7681 9.83057H4.50305C4.02213 9.83057 3.6337 9.4165 3.6337 8.91114V6.74299V4.31726V4.15424L13.6374 5.61163V8.90788C13.6374 9.41976 13.2459 9.83057 12.7681 9.83057Z" fill="black"/>
</svg>
