<svg  viewBox="0 0 15 15" fill="none" xmlns="http://www.w3.org/2000/svg">
  <path d="M13.0413 3.89907H3.90538C3.05883 3.89907 2.36675 3.21009 2.36675 2.36045C2.36675 1.5139 3.05574 0.821833 3.90538 0.821833H13.0444C13.273 0.821833 13.4553 0.636457 13.4553 0.410917C13.4553 0.182286 13.2699 0 13.0444 0H3.90538C2.60465 0 1.54492 1.05973 1.54492 2.36045V12.6395C1.54492 13.9403 2.60465 15 3.90538 15H13.0444C13.273 15 13.4553 14.8146 13.4553 14.5891V4.30999C13.4522 4.08445 13.2699 3.89907 13.0413 3.89907ZM12.6304 14.1782H3.90538C3.05883 14.1782 2.36675 13.4892 2.36675 12.6395V4.15242C2.78076 4.50772 3.31835 4.724 3.90538 4.724H12.6304V14.1782Z" fill="#111111"/>
  <path d="M4.03494 1.98661C3.80631 1.98661 3.62402 2.17199 3.62402 2.39753C3.62402 2.62307 3.8094 2.80844 4.03494 2.80844H11.7528C11.9814 2.80844 12.1637 2.62307 12.1637 2.39753C12.1637 2.17199 11.9783 1.98661 11.7528 1.98661H4.03494Z" fill="#111111"/>
  <path d="M5.48092 12.38C5.52727 12.3955 5.57361 12.4047 5.61996 12.4047C5.78988 12.4047 5.94745 12.2997 6.00616 12.1329L6.50667 10.7333H8.43458C8.45003 10.7333 8.46857 10.7333 8.48401 10.7302L8.98453 12.1329C9.04323 12.2997 9.20389 12.4047 9.37073 12.4047C9.41707 12.4047 9.46342 12.3955 9.50976 12.38C9.72294 12.3028 9.83417 12.068 9.75693 11.8548L7.88463 6.60556C7.88154 6.5932 7.87536 6.58085 7.86918 6.56849C7.8661 6.56231 7.86301 6.55613 7.85992 6.54995C7.85683 6.54377 7.85374 6.53759 7.85065 6.53141C7.84756 6.52523 7.84138 6.51905 7.83829 6.50979C7.8352 6.5067 7.83211 6.50052 7.82902 6.49743C7.82593 6.49125 7.81975 6.48507 7.81357 6.47889C7.81048 6.4758 7.80739 6.46962 7.80121 6.46653C7.79812 6.46035 7.79194 6.45726 7.78577 6.45108C7.77959 6.4449 7.7765 6.44181 7.77032 6.43564C7.76723 6.43255 7.76105 6.42946 7.75796 6.42328C7.75178 6.4171 7.7456 6.41401 7.73942 6.40783C7.73633 6.40474 7.73015 6.40165 7.72706 6.39856C7.72088 6.39547 7.7147 6.38929 7.70853 6.3862C7.70235 6.38311 7.69617 6.38002 7.68999 6.37693C7.68381 6.37384 7.67763 6.37075 7.67145 6.36766C7.65909 6.36149 7.64673 6.35531 7.63438 6.35222H7.63129C7.61893 6.34913 7.60657 6.34604 7.59421 6.34295C7.58803 6.34295 7.58494 6.33986 7.57876 6.33986C7.56949 6.33677 7.56331 6.33677 7.55405 6.33368C7.54787 6.33368 7.54169 6.33368 7.53551 6.33059C7.52933 6.33059 7.52006 6.3275 7.51388 6.3275C7.5077 6.3275 7.50152 6.3275 7.49534 6.3275C7.48916 6.3275 7.48298 6.3275 7.47372 6.3275C7.46754 6.3275 7.45827 6.3275 7.45209 6.33059C7.44591 6.33059 7.43973 6.33059 7.43355 6.33368C7.42428 6.33368 7.4181 6.33677 7.40883 6.33986C7.40266 6.33986 7.39957 6.34295 7.39339 6.34295C7.38103 6.34604 7.36867 6.34913 7.3594 6.35222H7.35631C7.34395 6.35531 7.33159 6.36149 7.31924 6.36766C7.31306 6.37075 7.30688 6.37384 7.3007 6.37693C7.29452 6.38002 7.28834 6.38311 7.28216 6.3862C7.27598 6.38929 7.2698 6.39547 7.26053 6.39856C7.25744 6.40165 7.25127 6.40474 7.24818 6.40783C7.242 6.41401 7.23582 6.4171 7.22964 6.42328C7.22655 6.42637 7.22037 6.42946 7.21728 6.43564C7.2111 6.44181 7.20801 6.4449 7.20183 6.45108C7.19565 6.45726 7.19256 6.46035 7.18638 6.46653C7.18329 6.46962 7.1802 6.4758 7.17402 6.47889C7.16785 6.48507 7.16476 6.49125 7.15858 6.49743C7.15549 6.50052 7.1524 6.5067 7.14931 6.50979C7.14622 6.51596 7.14004 6.52214 7.13695 6.52832C7.13386 6.5345 7.13077 6.54068 7.12768 6.54686C7.12459 6.55304 7.1215 6.55922 7.11841 6.5654C7.11223 6.57776 7.10605 6.59012 7.10296 6.60247L5.22449 11.8517C5.15652 12.068 5.26774 12.3028 5.48092 12.38ZM7.49843 7.96499L8.19359 9.91143H6.80018L7.49843 7.96499Z" fill="#111111"/>
</svg>
