<svg viewBox="0 0 20 20" fill="none" xmlns="http://www.w3.org/2000/svg">
  <path d="M8.44444 0H0.740741C0.333333 0 0 0.333333 0 0.740741V8.44444C0 8.85185 0.333333 9.18519 0.740741 9.18519H8.44444C8.85185 9.18519 9.18519 8.85185 9.18519 8.44444V0.740741C9.18519 0.333333 8.85185 0 8.44444 0ZM7.7037 7.7037H1.48148V1.48148H7.7037V7.7037Z" fill="white"/>
  <path d="M19.2594 0H11.5557C11.1483 0 10.8149 0.333333 10.8149 0.740741V8.44444C10.8149 8.85185 11.1483 9.18519 11.5557 9.18519H19.2594C19.6668 9.18519 20.0001 8.85185 20.0001 8.44444V0.740741C20.0001 0.333333 19.6668 0 19.2594 0ZM18.5186 7.7037H12.2964V1.48148H18.5186V7.7037Z" fill="white"/>
  <path d="M8.44444 10.8149H0.740741C0.333333 10.8149 0 11.1483 0 11.5557V19.2594C0 19.6668 0.333333 20.0001 0.740741 20.0001H8.44444C8.85185 20.0001 9.18519 19.6668 9.18519 19.2594V11.5557C9.18519 11.1483 8.85185 10.8149 8.44444 10.8149ZM7.7037 18.5186H1.48148V12.2964H7.7037V18.5186Z" fill="white"/>
  <path d="M19.2594 10.8149H11.5557C11.1483 10.8149 10.8149 11.1483 10.8149 11.5557V19.2594C10.8149 19.6668 11.1483 20.0001 11.5557 20.0001H19.2594C19.6668 20.0001 20.0001 19.6668 20.0001 19.2594V11.5557C20.0001 11.1483 19.6668 10.8149 19.2594 10.8149ZM18.5186 18.5186H12.2964V12.2964H18.5186V18.5186Z" fill="white"/>
</svg>
