<svg viewBox="0 0 20 20" fill="none" xmlns="http://www.w3.org/2000/svg">
<path d="M3.33333 0H1.11111C0.497431 0 0 0.497431 0 1.11111V3.33333C0 3.94701 0.497431 4.44444 1.11111 4.44444H3.33333C3.94701 4.44444 4.44444 3.94701 4.44444 3.33333V1.11111C4.44444 0.497431 3.94701 0 3.33333 0Z" fill="#111111"/>
<path d="M3.33333 7.77783H1.11111C0.497431 7.77783 0 8.27526 0 8.88894V11.1112C0 11.7248 0.497431 12.2223 1.11111 12.2223H3.33333C3.94701 12.2223 4.44444 11.7248 4.44444 11.1112V8.88894C4.44444 8.27526 3.94701 7.77783 3.33333 7.77783Z" fill="#111111"/>
<path d="M3.33333 15.5557H1.11111C0.497431 15.5557 0 16.0531 0 16.6668V18.889C0 19.5027 0.497431 20.0001 1.11111 20.0001H3.33333C3.94701 20.0001 4.44444 19.5027 4.44444 18.889V16.6668C4.44444 16.0531 3.94701 15.5557 3.33333 15.5557Z" fill="#111111"/>
<path d="M20.0001 1.11133H6.66675V3.33355H20.0001V1.11133Z" fill="#111111"/>
<path d="M20.0001 8.88867H6.66675V11.1109H20.0001V8.88867Z" fill="#111111"/>
<path d="M20.0001 16.6665H6.66675V18.8887H20.0001V16.6665Z" fill="#111111"/>
</svg>
